<?xml version="1.0" encoding="utf-8"?>
<!-- Generator: Adobe Illustrator 25.4.1, SVG Export Plug-In . SVG Version: 6.00 Build 0)  -->
<svg version="1.1" xmlns="http://www.w3.org/2000/svg" xmlns:xlink="http://www.w3.org/1999/xlink" x="0px" y="0px"
	 viewBox="0 0 392.5 392.5" style="enable-background:new 0 0 392.5 392.5;" xml:space="preserve">
<style type="text/css">
	.st0{fill:#CA3F27;}
</style>
<g id="Cirlce">
	<g>
		<path class="st0" d="M197.4,385.3c-104.4,0-189.4-85-189.4-189.4C7.9,91.4,92.9,6.4,197.4,6.4s189.4,85,189.4,189.4
			C386.8,300.3,301.8,385.3,197.4,385.3z M197.4,29.8c-91.6,0-166.1,74.5-166.1,166.1c0,91.6,74.5,166.1,166.1,166.1
			s166.1-74.5,166.1-166.1C363.5,104.3,288.9,29.8,197.4,29.8z"/>
	</g>
</g>
<g id="_x21_">
	<g>
		<path class="st0" d="M119.6,289c-0.1,10.3,10,16.6,20.5,18.6c10.6,2,19.6-1.5,22.5-12.3c2.9-10.7-4.5-21-17.5-22.7
			C132,271,119.7,278.7,119.6,289 M293.7,95.1c-27.4-10.4-56-17.1-85.1-20.1c-41.6,56.5-66.4,115.6-76.2,170.2
			c13,0.1,25.8,1.6,38,4.4C192.7,195.9,233.6,140.9,293.7,95.1"/>
	</g>
</g>
</svg>
